<?xml version="1.0" encoding="utf-8"?>
<!-- Generator: Adobe Illustrator 15.1.0, SVG Export Plug-In . SVG Version: 6.00 Build 0)  -->
<!DOCTYPE svg PUBLIC "-//W3C//DTD SVG 1.1//EN" "http://www.w3.org/Graphics/SVG/1.1/DTD/svg11.dtd">
<svg version="1.1"
	 id="svg2" xmlns:inkscape="http://www.inkscape.org/namespaces/inkscape" xmlns:svg="http://www.w3.org/2000/svg" xmlns:dc="http://purl.org/dc/elements/1.1/" xmlns:rdf="http://www.w3.org/1999/02/22-rdf-syntax-ns#" xmlns:cc="http://creativecommons.org/ns#" sodipodi:docname="Accenture.svg" inkscape:version="0.48.2 r9819" xmlns:sodipodi="http://sodipodi.sourceforge.net/DTD/sodipodi-0.dtd"
	 xmlns="http://www.w3.org/2000/svg" xmlns:xlink="http://www.w3.org/1999/xlink" x="0px" y="0px" width="604px" height="335px"
	 viewBox="-77.5 -94.306 604 335" enable-background="new -77.5 -94.306 604 335" xml:space="preserve">
<title  id="title4080">Logo of Accenture</title>
<sodipodi:namedview  inkscape:pageopacity="0.0" borderopacity="1.0" fit-margin-right="0" fit-margin-bottom="0" inkscape:pageshadow="2" inkscape:zoom="2.7699269" inkscape:cx="200" inkscape:cy="10.233768" inkscape:document-units="px" inkscape:current-layer="g3439" showgrid="false" inkscape:window-width="1440" inkscape:window-height="797" inkscape:window-x="0" inkscape:window-y="0" inkscape:window-maximized="1" fit-margin-left="0" pagecolor="#ffffff" fit-margin-top="0" bordercolor="#666666" id="base">
	</sodipodi:namedview>
<g id="layer1" transform="translate(-3.8882e-6,-843.73307)" inkscape:groupmode="layer" inkscape:label="Layer 1">
	<g id="g3437" transform="matrix(2.1993913,0,0,-2.1993913,-100.54297,1923.9817)">
		<g>
			<defs>
				<rect id="SVGID_1_" x="-154.212" y="305.256" width="604" height="314.545"/>
			</defs>
			<clipPath id="SVGID_2_">
				<use xlink:href="#SVGID_1_"  overflow="visible"/>
			</clipPath>
			<g id="g3439" clip-path="url(#SVGID_2_)">
				<g id="g3445" transform="translate(64.2223,439.705)">
					<path id="path3447" inkscape:connector-curvature="0" d="M-25.798,16.637v25.454c0,8.256-5.418,11.107-13.001,11.107
						c-7.426,0-13.608-3.152-13.608-11.333h8.134c0,3.533,1.874,5.483,5.474,5.483c4.13,0,5.033-3.005,5.033-6.533v-3.538
						c-8.113-0.227-19.98-1.356-19.98-12.097c0-6.079,4.814-9.383,10.511-9.383c3.914,0,7.512,1.281,9.327,4.961h0.142v-4.121
						H-25.798 M-33.766,32.395c0-4.59-1.88-10.734-7.435-10.734c-2.788,0-4.435,1.429-4.435,4.282
						C-45.636,31.317-37.745,32.395-33.766,32.395"/>
				</g>
				<g id="g3449" transform="translate(80.5923,455.2607)">
					<path id="path3451" inkscape:connector-curvature="0" d="M-17.449,24.571c0,3.683-1.051,7.222-5.406,7.222
						c-5.264,0-6.837-5.483-6.837-9.779c0-9.013,5.244-15.909,14.733-15.909c2.014,0,4.036,0.226,5.997,0.928V1.9
						c-3.389-1.065-6.908-1.658-10.444-1.658c-12.764,0-19.15,7.824-19.15,20.278c0,10.381,5.648,17.122,16.381,17.122
						c8.714,0,13.587-4.267,13.587-13.072H-17.449"/>
				</g>
				<g id="g3453" transform="translate(101.7985,455.2607)">
					<path id="path3455" inkscape:connector-curvature="0" d="M-6.634,24.571c0,3.683-1.054,7.222-5.401,7.222
						c-5.253,0-6.846-5.483-6.846-9.779c0-9.013,5.279-15.909,14.733-15.909c2.022,0,4.051,0.226,5.999,0.928V1.9
						C-1.517,0.835-5.053,0.243-8.585,0.243c-12.77,0-19.145,7.824-19.145,20.278c0,10.381,5.64,17.122,16.365,17.122
						c8.722,0,13.602-4.267,13.602-13.072H-6.634"/>
				</g>
				<g id="g3457" transform="translate(128.6627,452.9696)">
					<path id="path3459" inkscape:connector-curvature="0" d="M7.067,23.402v2.048c0,8.717-4.499,14.484-13.595,14.484
						c-10.662,0-15.327-6.679-15.327-16.822c0-11.788,5.33-20.578,18.02-20.578c3.384,0,6.768,0.383,9.988,1.435v5.754
						c-2.091-0.726-4.58-1.327-6.819-1.327c-8.119,0-13.451,7.411-13.451,15.006H7.067 M-0.82,28.45h-13.066
						c0.37,3.61,3.162,6.178,6.748,6.178C-3.297,34.628-0.82,32.281-0.82,28.45"/>
				</g>
				<g id="g3461" transform="translate(145.026,439.705)">
					<path id="path3463" inkscape:connector-curvature="0" d="M15.412,16.637v20.413c0,1.726,0.148,6.317-1.273,7.67
						c-0.611,0.605-1.573,0.679-2.408,0.679c-6.008,0-8.415-8.491-8.415-13.315V16.637H-5.02v35.744h8.335v-6.683h0.153
						c1.883,4.577,5.473,7.501,10.592,7.501c6.837,0,9.695-5.632,9.695-11.789V16.637H15.412"/>
				</g>
				<g id="g3465" transform="translate(162.0395,459.5468)">
					<path id="path3467" inkscape:connector-curvature="0" d="M24.088,26.757V9.852c0-4.219,0.437-8.034,5.643-8.034
						c1.264,0,2.553,0.284,3.829,0.601v-5.871c-2.266-0.367-4.58-0.593-6.841-0.593c-7.308,0-10.949,2.412-10.949,9.835v20.965
						H8.775v5.783h6.995v8.471l8.319,3.392V32.54h10.594v-5.783H24.088"/>
				</g>
				<g id="g3469" transform="translate(185.0365,439.705)">
					<path id="path3471" inkscape:connector-curvature="0" d="M35.817,16.637v6.668h-0.143c-1.901-4.495-5.562-7.508-10.598-7.508
						c-6.834,0-9.696,5.628-9.696,11.781v24.803h8.343V31.935c0-1.73-0.146-6.301,1.268-7.65c0.615-0.606,1.579-0.662,2.417-0.662
						c5.997,0,8.41,8.462,8.41,13.286v15.473h8.351V16.637H35.817"/>
				</g>
				<g id="g3473" transform="translate(199.5594,450.0829)">
					<path id="path3475" inkscape:connector-curvature="0" d="M43.224,21.93V6.259h-8.331v35.745h8.331v-6.602h0.147
						c2.792,4.933,5.565,7.419,11.576,7.419v-8.704C46.388,34.116,43.224,30.362,43.224,21.93"/>
				</g>
				<g id="g3477" transform="translate(227.5825,452.9696)">
					<path id="path3479" inkscape:connector-curvature="0" d="M57.516,23.402v2.048c0,8.717-4.498,14.484-13.593,14.484
						c-10.662,0-15.334-6.679-15.334-16.822c0-11.788,5.341-20.578,18.02-20.578c3.399,0,6.773,0.383,10.002,1.435v5.754
						c-2.091-0.726-4.58-1.327-6.824-1.327c-8.118,0-13.459,7.411-13.459,15.006H57.516 M49.627,28.45H36.563
						c0.38,3.61,3.151,6.178,6.755,6.178C47.154,34.628,49.627,32.281,49.627,28.45"/>
				</g>
				<g id="g3481" transform="translate(151.8864,491.1591)">
					<path id="path3483" inkscape:connector-curvature="0" d="M18.911,42.878v-5.89c0,0,16.658-6.439,19.056-7.362
						c-2.398-0.921-19.056-7.346-19.056-7.346v-5.867l25.931,10.519v5.407L18.911,42.878"/>
				</g>
			</g>
		</g>
	</g>
</g>
</svg>
