<?xml version="1.0" encoding="utf-8"?>
<!-- Generator: Adobe Illustrator 15.1.0, SVG Export Plug-In . SVG Version: 6.00 Build 0)  -->
<!DOCTYPE svg PUBLIC "-//W3C//DTD SVG 1.1//EN" "http://www.w3.org/Graphics/SVG/1.1/DTD/svg11.dtd">
<svg version="1.1" id="Layer_1" xmlns:sketch="http://www.bohemiancoding.com/sketch/ns"
	 xmlns="http://www.w3.org/2000/svg" xmlns:xlink="http://www.w3.org/1999/xlink" x="0px" y="0px" width="564px"
	 height="1247.246px" viewBox="-197 -435.651 564 1247.246" enable-background="new -197 -435.651 564 1247.246"
	 xml:space="preserve">
<title>gulp</title>
<desc>Created with Sketch.</desc>
<g id="Page-1" sketch:type="MSPage">
	<g id="gulp" sketch:type="MSArtboardGroup">
		<g id="Gulp-Logo" transform="translate(0.000000, 1.000000)" sketch:type="MSLayerGroup">
			<path id="Cup" sketch:type="MSShapeGroup" fill="#DA4648" d="M76.27,511.768c-68.685,0-121.756-10.318-147.278-16.467
				c-17.452-4.205-31.466-8.555-42.112-13.025l34.038,58.153l13.314,181.701c0,20.37,64.711,36.882,144.533,36.882
				c79.824,0,144.533-16.512,144.533-36.882l10.542-183.68l32.206-56.345c-10.69,4.527-24.832,8.938-42.501,13.195
				C198.022,501.449,144.949,511.768,76.27,511.768z M267.15-79.496c-50.408,7.041-117.316,10.919-188.386,10.919
				c-71.072,0-137.977-3.878-188.386-10.919c-24.97-3.487-44.727-7.601-58.719-12.22c-3.338-1.104-8.994-2.987-14.437-5.988
				l31.232,287.445c1.45-4.95,3.067-9.894,4.858-14.821c3.667-10.096,7.908-19.967,12.722-29.609
				c4.816-9.639,10.06-18.751,15.727-27.334c5.665-8.58,11.699-16.481,18.091-23.702c6.395-7.217,12.956-13.424,19.692-18.627
				c6.733-5.197,13.531-9.261,20.392-12.188c6.864-2.926,13.661-4.394,20.396-4.394c7.755,0,15.257,2.121,22.506,6.362
				c7.244,4.239,14.017,11.105,20.326,20.596c1.449,2.12,2.369,4.266,2.749,6.434c0.387,2.174,0.575,4.218,0.575,6.134
				c0,4.543-1.086,8.131-3.259,10.753c-2.172,2.625-4.752,3.937-7.734,3.937c-2.732,0-5.267-1.439-7.609-4.313
				c-2.346-2.878-4.965-6.992-7.865-12.345c-2.729-4.846-5.731-8.352-9.012-10.524c-3.283-2.169-6.84-3.256-10.675-3.256
				c-5.968,0-12.339,2.474-19.115,7.421c-6.779,4.945-13.491,11.483-20.136,19.609c-6.651,8.131-13.021,17.416-19.116,27.868
				c-6.094,10.449-11.49,21.148-16.177,32.102c-4.689,10.959-8.413,21.763-11.186,32.412c-2.772,10.649-4.155,20.217-4.155,28.697
				c0,2.828,0.194,5.734,0.575,8.705c0.386,2.983,1.107,5.682,2.175,8.105c1.062,2.426,2.513,4.416,4.344,5.979
				c1.835,1.568,4.157,2.347,6.968,2.347c3.156,0,6.734-1.058,10.744-3.179c4.004-2.116,8.161-4.897,12.461-8.326
				c4.306-3.435,8.633-7.321,12.98-11.665c4.352-4.339,8.399-8.729,12.147-13.175c3.748-4.439,7.074-8.706,9.971-12.795
				c2.899-4.088,5.071-7.647,6.523-10.679l11.891-35.588c1.447-3.834,3.343-6.561,5.688-8.176c2.343-1.616,4.752-2.424,7.227-2.424
				c1.189,0,2.383,0.204,3.579,0.604c1.196,0.406,2.257,1.039,3.197,1.893c0.938,0.861,1.683,1.969,2.237,3.336
				c0.553,1.359,0.831,2.95,0.831,4.767c0,4.846-0.426,9.386-1.278,13.631c-0.853,4.243-1.938,8.379-3.263,12.42
				c-1.32,4.035-2.793,8.1-4.412,12.189c-1.618,4.088-3.197,8.354-4.728,12.8c-0.341,0.505-0.958,2.092-1.855,4.766
				c-0.896,2.681-1.979,6.038-3.259,10.072c-1.277,4.042-2.665,8.558-4.155,13.556c-1.495,4.998-3.025,10.097-4.601,15.297
				c-1.58,5.199-3.092,10.298-4.541,15.296c-1.45,4.998-2.752,9.514-3.9,13.555c-1.149,4.035-2.108,7.417-2.879,10.145
				c-0.767,2.728-1.235,4.338-1.405,4.849c-0.425,1.61-1.11,3.405-2.044,5.372c-0.937,1.968-2.044,3.839-3.325,5.604
				c-1.279,1.765-2.685,3.232-4.22,4.391c-1.533,1.159-3.11,1.741-4.732,1.741c-2.726,0-4.709-0.909-5.941-2.721
				c-1.239-1.819-1.854-5.153-1.854-9.996v-2.122c0-0.707,0.04-1.468,0.125-2.27c0.083-1.616,0.725-4.646,1.921-9.093
				c1.191-4.438,2.619-9.46,4.283-15.064c1.661-5.604,3.454-11.409,5.371-17.417c1.914-6.008,3.641-11.38,5.179-16.128
				c-4.525,5.051-9.42,10.072-14.705,15.069c-5.289,4.998-10.701,9.49-16.24,13.479c-5.542,3.987-11.125,7.244-16.75,9.77
				c-5.626,2.52-11.038,3.786-16.237,3.786c-5.967,0-11.103-1.313-15.411-3.94c-0.775-0.476-1.509-1.011-2.238-1.539l17.379,182.218
				c4.523,11.338,89.699,39.2,202.001,39.2c112.353,0,197.563-27.889,202.008-39.219l24.965-216.643
				c-2.068,1.896-4.076,3.75-6.002,5.545c-7.16,6.661-13.918,12.39-20.27,17.186c-6.348,4.796-12.551,8.51-18.602,11.13
				c-6.055,2.627-12.532,3.94-19.438,3.94c-6.478,0-11.487-1.415-15.022-4.243c-3.536-2.822-5.308-6.709-5.308-11.659v-1.136
				c0-0.351,0.042-0.784,0.131-1.289c0.34-3.024,1.665-6.513,3.964-10.447c2.3-3.939,5.069-8.028,8.308-12.265
				c3.239-4.244,6.691-8.534,10.358-12.878c3.667-4.338,7.055-8.45,10.168-12.343c3.107-3.881,5.688-7.44,7.731-10.673
				c2.05-3.233,3.071-5.854,3.071-7.874c0-1.213-0.428-2.169-1.276-2.883c-0.856-0.701-2.265-1.057-4.221-1.057
				c-3.41,0-6.928,0.885-10.548,2.65c-3.625,1.766-7.207,4.143-10.744,7.12c-3.535,2.977-6.988,6.388-10.356,10.221
				c-3.364,3.839-6.52,7.826-9.462,11.962c-2.941,4.143-5.621,8.308-8.052,12.498c-2.431,4.189-4.499,8.052-6.204,11.582
				c-0.511,1.11-1.235,2.68-2.175,4.694c-0.938,2.021-1.961,4.297-3.066,6.816c-1.111,2.525-2.282,5.129-3.519,7.797
				c-1.235,2.68-2.365,5.205-3.387,7.577c-1.022,2.371-1.938,4.486-2.745,6.357c-0.814,1.866-1.392,3.156-1.729,3.863
				c-0.429,0.909-1.13,2.62-2.11,5.146c-0.98,2.526-2.109,5.48-3.387,8.861c-1.278,3.381-2.621,6.94-4.029,10.679
				c-1.402,3.732-2.728,7.268-3.964,10.602c-1.236,3.327-2.323,6.258-3.257,8.783c-0.938,2.52-1.539,4.236-1.794,5.146
				c-0.851,2.627-1.854,5.097-3.002,7.426c-1.152,2.32-2.472,4.365-3.963,6.136c-1.492,1.765-3.197,3.174-5.116,4.233
				c-1.92,1.067-4.071,1.59-6.454,1.59c-3.072,0-5.604-0.736-7.612-2.195c-1.997-1.465-3.001-4.27-3.001-8.403
				c0-2.02,0.255-4.091,0.767-6.206c0.511-2.122,1.152-4.22,1.919-6.287c0.767-2.075,1.557-4.089,2.366-6.056
				c0.808-1.974,1.557-3.863,2.234-5.682c4.604-10.097,9.293-20.217,14.065-30.366c4.771-10.145,9.354-20.188,13.745-30.135
				c0.915-2.074,1.753-4.106,2.645-6.169c-0.268,0.262-0.529,0.535-0.791,0.791c-5.544,5.354-11.059,10.072-16.556,14.161
				c-5.503,4.088-10.958,7.345-16.365,9.77c-5.414,2.419-10.68,3.63-15.796,3.63c-3.494,0-6.412-0.552-8.753-1.663
				c-2.348-1.111-4.22-2.627-5.628-4.54c-1.408-1.92-2.413-4.19-3.007-6.816c-0.202-0.897-0.327-1.837-0.458-2.77
				c-1.497,1.165-3.007,2.3-4.528,3.376c-5.283,3.731-10.482,6.739-15.599,9.008c-5.11,2.271-9.717,3.405-13.803,3.405
				c-4.096,0-7.417-1.359-9.98-4.088c-2.556-2.722-3.83-7.368-3.83-13.93c0-4.647,0.682-10.049,2.041-16.205
				c-2.215,3.94-4.984,7.928-8.306,11.962c-3.329,4.042-7.119,7.726-11.379,11.06c-4.269,3.328-9.039,6.031-14.32,8.1
				c-5.289,2.068-11.043,3.102-17.262,3.102c-2.813,0-5.519-0.351-8.121-1.058s-4.88-1.919-6.84-3.637
				c-1.962-1.711-3.536-4.011-4.73-6.887c-1.192-2.876-1.79-6.489-1.79-10.828c0-0.101,0.17-1.64,0.511-4.623
				c0.342-2.978,1.428-7.672,3.262-14.084c1.832-6.405,4.668-14.713,8.499-24.911c3.84-10.198,9.252-22.564,16.241-37.1
				c1.788-3.838,3.857-6.589,6.198-8.254c2.348-1.667,4.88-2.501,7.606-2.501c1.196,0,2.43,0.18,3.708,0.53
				c1.285,0.355,2.474,0.909,3.584,1.667c1.104,0.758,2.003,1.719,2.686,2.878c0.676,1.16,1.024,2.495,1.024,4.011
				c0,1.011-0.132,1.973-0.388,2.876c-0.427,1.723-1.344,3.964-2.744,6.739c-1.408,2.781-3.051,5.961-4.929,9.544
				c-1.87,3.583-3.853,7.445-5.941,11.588c-2.09,4.136-4.028,8.427-5.817,12.872c-1.789,4.444-3.326,8.961-4.604,13.555
				s-2.004,9.062-2.172,13.4c0,1.818,0.424,3.482,1.278,4.998c0.853,1.515,2.261,2.27,4.22,2.27c5.537,0,10.822-1.818,15.855-5.449
				c5.026-3.637,9.668-8.153,13.936-13.555c4.262-5.402,8.118-11.208,11.57-17.418c3.454-6.21,6.329-11.886,8.628-17.037
				c1.623-3.429,3.049-7.12,4.285-11.053c1.234-3.94,2.58-7.571,4.027-10.905c1.452-3.334,3.11-6.109,4.988-8.332
				c1.872-2.216,4.219-3.331,7.03-3.331c3.072,0,5.497,1.162,7.292,3.483c1.789,2.325,2.68,5.1,2.68,8.327
				c0,1.818-0.57,4.32-1.724,7.5c-1.152,3.179-2.603,6.816-4.35,10.905s-3.644,8.456-5.687,13.098
				c-2.044,4.646-3.946,9.365-5.688,14.161c-1.752,4.795-3.196,9.489-4.35,14.084c-1.153,4.593-1.725,8.859-1.725,12.794
				c0,3.637,1.875,5.455,5.623,5.455c2.645,0,5.925-0.909,9.848-2.728c3.922-1.818,8.034-4.367,12.336-7.647
				c1.076-0.82,2.157-1.676,3.232-2.574c1.201-4.956,2.609-9.537,4.25-13.703c2.982-7.88,6.008-15.7,9.08-23.473
				c3.066-7.773,5.877-14.893,8.438-21.358l38.74-97.678c1.532-3.937,3.601-6.715,6.198-8.33c2.603-1.613,5.224-2.423,7.868-2.423
				c2.638,0,5.045,0.859,7.22,2.574c2.175,1.719,3.263,4.495,3.263,8.331c0,1.817-0.363,3.736-1.088,5.754
				c-0.726,2.021-1.64,4.189-2.752,6.511c-2.127,4.75-4.665,10.551-7.606,17.417c-2.941,6.866-6.097,14.339-9.46,22.414
				c-3.37,8.079-6.822,16.481-10.358,25.214c-3.535,8.736-6.988,17.239-10.358,25.518c-3.362,8.284-6.519,16.127-9.46,23.55
				s-5.473,13.857-7.606,19.308c-0.939,2.323-1.854,5.027-2.745,8.105c-0.898,3.078-1.343,5.829-1.343,8.255
				c0,1.509,0.255,2.722,0.766,3.631s1.492,1.366,2.941,1.366c1.789,0,4.023-0.63,6.71-1.896c2.686-1.26,5.58-2.93,8.694-4.998
				c3.113-2.067,6.352-4.439,9.716-7.118c3.369-2.675,6.715-5.45,10.037-8.326c3.327-2.883,6.501-5.759,9.525-8.635
				c3.025-2.876,5.734-5.527,8.124-7.951c0.559-0.582,1.229-0.992,1.967-1.302c1.438-4.296,2.751-8.51,3.91-12.628
				c0.684-1.818,1.622-4.392,2.816-7.725c1.188-3.334,2.556-6.615,4.089-9.848c1.533-3.227,3.263-6.031,5.176-8.402
				c1.92-2.37,3.988-3.56,6.204-3.56c3.411,0,5.884,0.784,7.417,2.348c1.532,1.569,2.3,3.863,2.3,6.894
				c0,0.606-0.083,1.562-0.257,2.876c-0.172,1.313-0.38,2.704-0.635,4.166c-0.256,1.462-0.535,2.852-0.832,4.166
				c-0.303,1.313-0.576,2.27-0.832,2.876c3.149-3.435,6.56-6.84,10.227-10.221c3.667-3.382,7.459-6.442,11.381-9.164
				c3.923-2.729,7.927-4.944,12.022-6.669c4.087-1.709,8.183-2.571,12.27-2.571c2.812,0,5.604,0.406,8.374,1.215
				c2.77,0.805,5.247,1.992,7.416,3.556c2.175,1.569,3.946,3.536,5.308,5.907c1.36,2.371,2.043,5.123,2.043,8.254
				c0,4.143-1.039,8.558-3.131,13.253c-2.086,4.694-4.706,9.412-7.862,14.155c-3.155,4.747-6.567,9.365-10.227,13.857
				c-3.667,4.493-7.097,8.581-10.293,12.266c-3.198,3.689-5.884,6.816-8.058,9.389c-2.17,2.579-3.305,4.32-3.388,5.229
				c0,1.213,0.386,2.192,1.153,2.954c0.766,0.755,2.043,1.135,3.833,1.135c1.45,0,3.582-0.809,6.394-2.425
				c2.811-1.616,6.757-4.415,11.825-8.402c5.069-3.988,11.512-9.342,19.309-16.058c5.348-4.6,11.611-10.084,18.665-16.324
				l33.817-313.174c-5.447,3.007-11.11,4.894-14.453,5.997C311.88-87.097,292.123-82.983,267.15-79.496z M78.563-153.799
				c-146.194,0-264.707,16.345-264.707,36.512c0,20.165,118.513,36.511,264.707,36.511c146.192,0,264.708-16.347,264.708-36.511
				C343.271-137.454,224.756-153.799,78.563-153.799z M184.257-106.618c0,4.73-14.084,8.568-31.46,8.568
				c-17.373,0-31.457-3.837-31.457-8.568c0-4.735,14.084-8.57,31.457-8.57C170.173-115.188,184.257-111.353,184.257-106.618z"/>
			<path id="Straw" sketch:type="MSShapeGroup" fill="#DA4648" d="M127.71-110.406c-0.154,0.25-0.237,0.502-0.237,0.761
				c0,3.063,11.338,5.544,25.324,5.544s25.324-2.481,25.324-5.544l33.076-134.113l131.54-138.878
				c0.041-0.043,0.083-0.086,0.124-0.132c2.784-3.148-2.863-12.894-12.241-21.252c-9.372-8.358-19.495-11.188-22.642-8.005
				c-0.024,0.023-0.047,0.047-0.068,0.072L167.561-264.27L127.71-110.406z"/>
		</g>
	</g>
</g>
</svg>
